<svg width="113" height="90" viewBox="0 0 113 90" fill="none" xmlns="http://www.w3.org/2000/svg">
<rect x="61.9129" y="0.000244141" width="42.3493" height="10.3012" transform="rotate(90 61.9129 0.000244141)" fill="#F2F5FC"/>
<rect x="111.833" y="16.4456" width="111.833" height="16.42" rx="4" transform="rotate(-179.987 111.833 16.4456)" fill="#F2F5FC"/>
<rect x="111.939" y="89.2583" width="111.833" height="10.2569" rx="4" transform="rotate(-179.987 111.939 89.2583)" fill="#F2F5FC"/>
<rect x="101.973" y="89.2771" width="89.277" height="10.3012" rx="4" transform="rotate(-90 101.973 89.2771)" fill="#F2F5FC"/>
<rect x="0.10569" y="89.2771" width="89.277" height="10.3012" rx="4" transform="rotate(-90 0.10569 89.2771)" fill="#F2F5FC"/>
<path d="M37.2198 53.1996C37.5449 56.3015 38.7824 59.2373 40.776 61.6359C42.7696 64.0344 45.4297 65.7879 48.4198 66.6746C51.41 67.5613 54.5959 67.5414 57.5747 66.6175C60.5536 65.6935 63.1916 63.907 65.1551 61.4838C67.1186 59.0606 68.3194 56.1095 68.6058 53.0039C68.8921 49.8982 68.251 46.7773 66.7637 44.036C65.2764 41.2946 63.0095 39.0559 60.2498 37.6028C57.4901 36.1498 54.7023 35.6212 51.6004 35.9462L51.6004 43.386C53.1312 43.2256 55.1668 43.9531 56.5287 44.6701C57.8906 45.3872 59.0093 46.492 59.7434 47.8449C60.4774 49.1978 60.7937 50.7379 60.6524 52.2706C60.5111 53.8032 59.9185 55.2596 58.9495 56.4554C57.9805 57.6513 56.6787 58.533 55.2086 58.9889C53.7385 59.4449 52.1662 59.4547 50.6906 59.0171C49.215 58.5795 47.9022 57.7142 46.9184 56.5305C45.9345 55.3468 45.3238 53.898 45.1634 52.3672L37.2198 53.1996Z" fill="#F2F5FC"/>
</svg>
