<svg width="150" height="101" viewBox="0 0 150 101" fill="none" xmlns="http://www.w3.org/2000/svg">
<path d="M87.1017 41.3107C86.9284 41.3107 86.755 41.2677 86.6033 41.1817C82.4425 39.0532 78.8451 38.1502 74.5325 38.1502C70.2416 38.1502 66.1675 39.1607 62.4617 41.1817C61.9416 41.4612 61.2915 41.2677 60.9881 40.7517C60.7063 40.2357 60.9014 39.5692 61.4215 39.2897C65.4523 37.1182 69.8732 36.0002 74.5325 36.0002C79.1485 36.0002 83.1793 37.0107 87.6002 39.2682C88.142 39.5477 88.337 40.1927 88.0553 40.7087C87.8602 41.0957 87.4918 41.3107 87.1017 41.3107ZM56.0904 52.5982C55.8737 52.5982 55.657 52.5337 55.4619 52.4047C54.9635 52.0607 54.8551 51.3942 55.2019 50.8997C57.3473 47.8897 60.0779 45.5247 63.3285 43.8692C70.1333 40.3862 78.8451 40.3647 85.6715 43.8477C88.9221 45.5032 91.6527 47.8467 93.7981 50.8352C94.1449 51.3082 94.0365 51.9962 93.5381 52.3402C93.0396 52.6842 92.3678 52.5767 92.0211 52.0822C90.0707 49.3732 87.6002 47.2447 84.6746 45.7612C78.455 42.6007 70.5017 42.6007 64.3037 45.7827C61.3565 47.2877 58.886 49.4377 56.9356 52.1467C56.7622 52.4477 56.4371 52.5982 56.0904 52.5982ZM69.6348 78.5487C69.3531 78.5487 69.0714 78.4412 68.8764 78.2262C66.991 76.3557 65.9724 75.1517 64.5205 72.5502C63.0252 69.9057 62.245 66.6807 62.245 63.2192C62.245 56.8337 67.7495 51.6307 74.5108 51.6307C81.2722 51.6307 86.7767 56.8337 86.7767 63.2192C86.7767 63.8212 86.2999 64.2942 85.6931 64.2942C85.0863 64.2942 84.6096 63.8212 84.6096 63.2192C84.6096 58.0162 80.0803 53.7807 74.5108 53.7807C68.9414 53.7807 64.4121 58.0162 64.4121 63.2192C64.4121 66.3152 65.1056 69.1747 66.4275 71.4967C67.8145 73.9692 68.768 75.0227 70.4367 76.6997C70.8484 77.1297 70.8484 77.7962 70.4367 78.2262C70.1983 78.4412 69.9166 78.5487 69.6348 78.5487ZM85.173 74.5712C82.5942 74.5712 80.3187 73.9262 78.455 72.6577C75.226 70.4862 73.2973 66.9602 73.2973 63.2192C73.2973 62.6172 73.774 62.1442 74.3808 62.1442C74.9876 62.1442 75.4644 62.6172 75.4644 63.2192C75.4644 66.2507 77.0247 69.1102 79.6686 70.8732C81.2072 71.9052 83.0059 72.3997 85.173 72.3997C85.6931 72.3997 86.56 72.3352 87.4268 72.1847C88.0119 72.0772 88.5754 72.4642 88.6837 73.0662C88.7921 73.6467 88.402 74.2057 87.7952 74.3132C86.56 74.5497 85.4764 74.5712 85.173 74.5712ZM80.8171 79.0002C80.7304 79.0002 80.6221 78.9787 80.5354 78.9572C77.0897 78.0112 74.8359 76.7427 72.4738 74.4422C69.4398 71.4537 67.7711 67.4762 67.7711 63.2192C67.7711 59.7362 70.7617 56.8982 74.4458 56.8982C78.1299 56.8982 81.1205 59.7362 81.1205 63.2192C81.1205 65.5197 83.1359 67.3902 85.6281 67.3902C88.1203 67.3902 90.1357 65.5197 90.1357 63.2192C90.1357 55.1137 83.0926 48.5347 74.4242 48.5347C68.2696 48.5347 62.6351 51.9317 60.0996 57.1992C59.2544 58.9407 58.821 60.9832 58.821 63.2192C58.821 64.8962 58.9727 67.5407 60.2729 70.9807C60.4896 71.5397 60.2079 72.1632 59.6445 72.3567C59.081 72.5717 58.4526 72.2707 58.2575 71.7332C57.1956 68.9167 56.6755 66.1217 56.6755 63.2192C56.6755 60.6392 57.174 58.2957 58.1492 56.2532C61.0314 50.2547 67.4244 46.3632 74.4242 46.3632C84.2845 46.3632 92.3028 53.9097 92.3028 63.1977C92.3028 66.6807 89.3122 69.5187 85.6281 69.5187C81.944 69.5187 78.9534 66.6807 78.9534 63.1977C78.9534 60.8972 76.938 59.0267 74.4458 59.0267C71.9536 59.0267 69.9382 60.8972 69.9382 63.1977C69.9382 66.8742 71.3685 70.3142 73.9907 72.8942C76.0495 74.9152 78.0216 76.0332 81.0772 76.8717C81.6623 77.0222 81.9874 77.6242 81.8357 78.1832C81.7273 78.6777 81.2722 79.0002 80.8171 79.0002Z" fill="#5D6B89"/>
<path d="M101.634 2.27558L110.802 9.90157L101.634 10.0672L101.634 2.27558Z" stroke="white" stroke-width="2"/>
<path d="M105.333 4.09106H41.1094V97.0002H109.327V7.42017L113.327 10.7542V101H37.1094V0.0910645H100.535L105.333 4.09106Z" fill="white"/>
<rect x="39" y="36.0002" width="72" height="63" stroke="#5D6B89" stroke-width="4"/>
<line y1="35.5002" x2="150" y2="35.5002" stroke="#7296E3" stroke-width="5"/>
</svg>
